# xmcd
#
# Track frame offsets: 
#        150
#        20793
#        34525
#        67535
#        82998
#        104622
#        115164
#        129865
#        151553
#        173378
#
# Disc length: 3071 seconds
#
# Revision: 0
# Processed by: cddbd v1.5.2PL0 Copyright (c) Steve Scherf et al.
# Submitted via: ExactAudioCopy v1.3
#
DISCID=630bfd0a
DTITLE=Howlin' Stone - Slow Blues In A
DYEAR=2015
DGENRE=Electric Blues
TTITLE0=Do My Own Thing
TTITLE1=The Devil Is Watching You
TTITLE2=Love Breaks You Down
TTITLE3=Going Home To Live With God
TTITLE4=Ode To Mister Johnson
TTITLE5=Flying Home
TTITLE6=How In The Devil
TTITLE7=Come Home
TTITLE8=Heart Beat Like A Hammer
TTITLE9=Put A Spell On You
EXTD=
EXTT0=
EXTT1=
EXTT2=
EXTT3=
EXTT4=
EXTT5=
EXTT6=
EXTT7=
EXTT8=
EXTT9=
PLAYORDER=
